<?xml version="1.0" standalone="no"?>
<!DOCTYPE svg PUBLIC "-//W3C//DTD SVG 20010904//EN"
 "http://www.w3.org/TR/2001/REC-SVG-20010904/DTD/svg10.dtd">
<svg version="1.0" xmlns="http://www.w3.org/2000/svg"
 width="120.000000pt" height="120.000000pt" viewBox="0 0 120.000000 120.000000"
 preserveAspectRatio="xMidYMid meet">
<metadata>
Created by potrace 1.11, written by Peter Selinger 2001-2013
</metadata>
<g transform="translate(0.000000,120.000000) scale(0.100000,-0.100000)"
fill="#000000" stroke="none">
<path d="M546 1108 c-61 -8 -105 -26 -131 -53 -11 -11 -38 -32 -61 -47 -22
-14 -49 -42 -58 -62 -9 -20 -21 -36 -27 -36 -5 0 -31 11 -58 25 -45 22 -71 58
-51 70 11 7 6 38 -7 42 -5 2 -22 -9 -37 -24 -27 -27 -27 -30 -25 -132 6 -249
72 -397 254 -570 l57 -55 -47 -14 c-65 -18 -92 -38 -120 -86 -26 -46 -57 -154
-46 -161 5 -2 195 -4 425 -4 466 0 427 -7 405 74 -13 51 -39 103 -62 128 -17
17 -119 68 -133 66 -3 0 -8 2 -11 5 -4 3 -2 6 4 6 33 0 233 235 233 273 0 8 7
20 15 27 8 7 15 20 15 29 0 9 7 34 14 56 21 60 27 100 31 215 4 101 3 107 -21
138 -37 47 -56 43 -51 -12 4 -38 1 -47 -22 -63 -63 -47 -65 -47 -102 10 -55
86 -132 136 -234 153 -5 1 -12 3 -15 4 -14 5 -91 4 -134 -2z"/>
</g>
</svg>
